<svg id="visual" viewBox="0 0 900 600" width="900" height="600" xmlns="http://www.w3.org/2000/svg" xmlns:xlink="http://www.w3.org/1999/xlink" version="1.1">
   <rect x="0" y="0" width="900" height="600" fill="#001220"></rect>
   <defs>
      <linearGradient id="grad1_0" x1="33.3%" y1="0%" x2="100%" y2="100%">
         <stop offset="20%" stop-color="#fbae3c" stop-opacity="1"></stop>
         <stop offset="80%" stop-color="#fbae3c" stop-opacity="1"></stop>
      </linearGradient>
   </defs>
   <defs>
      <linearGradient id="grad1_1" x1="33.3%" y1="0%" x2="100%" y2="100%">
         <stop offset="20%" stop-color="#fbae3c" stop-opacity="1"></stop>
         <stop offset="80%" stop-color="#cc5867" stop-opacity="1"></stop>
      </linearGradient>
   </defs>
   <defs>
      <linearGradient id="grad1_2" x1="33.3%" y1="0%" x2="100%" y2="100%">
         <stop offset="20%" stop-color="#593762" stop-opacity="1"></stop>
         <stop offset="80%" stop-color="#cc5867" stop-opacity="1"></stop>
      </linearGradient>
   </defs>
   <defs>
      <linearGradient id="grad1_3" x1="33.3%" y1="0%" x2="100%" y2="100%">
         <stop offset="20%" stop-color="#593762" stop-opacity="1"></stop>
         <stop offset="80%" stop-color="#001220" stop-opacity="1"></stop>
      </linearGradient>
   </defs>
   <defs>
      <linearGradient id="grad2_0" x1="0%" y1="0%" x2="66.7%" y2="100%">
         <stop offset="20%" stop-color="#fbae3c" stop-opacity="1"></stop>
         <stop offset="80%" stop-color="#fbae3c" stop-opacity="1"></stop>
      </linearGradient>
   </defs>
   <defs>
      <linearGradient id="grad2_1" x1="0%" y1="0%" x2="66.7%" y2="100%">
         <stop offset="20%" stop-color="#cc5867" stop-opacity="1"></stop>
         <stop offset="80%" stop-color="#fbae3c" stop-opacity="1"></stop>
      </linearGradient>
   </defs>
   <defs>
      <linearGradient id="grad2_2" x1="0%" y1="0%" x2="66.7%" y2="100%">
         <stop offset="20%" stop-color="#cc5867" stop-opacity="1"></stop>
         <stop offset="80%" stop-color="#593762" stop-opacity="1"></stop>
      </linearGradient>
   </defs>
   <defs>
      <linearGradient id="grad2_3" x1="0%" y1="0%" x2="66.7%" y2="100%">
         <stop offset="20%" stop-color="#001220" stop-opacity="1"></stop>
         <stop offset="80%" stop-color="#593762" stop-opacity="1"></stop>
      </linearGradient>
   </defs>
   <g transform="translate(900, 0)">
      <path d="M0 432.7C-51.2 408.1 -102.5 383.4 -148.9 359.4C-195.2 335.3 -236.7 311.9 -281.4 281.4C-326.1 251 -374 213.6 -399.7 165.6C-425.5 117.5 -429.1 58.8 -432.7 0L0 0Z" fill="#232745"></path>
      <path d="M0 324.5C-38.4 306 -76.9 287.6 -111.6 269.5C-146.4 251.5 -177.6 233.9 -211.1 211.1C-244.6 188.3 -280.5 160.2 -299.8 124.2C-319.1 88.1 -321.8 44.1 -324.5 0L0 0Z" fill="#96446e"></path>
      <path d="M0 216.3C-25.6 204 -51.2 191.7 -74.4 179.7C-97.6 167.7 -118.4 155.9 -140.7 140.7C-163.1 125.5 -187 106.8 -199.9 82.8C-212.7 58.8 -214.5 29.4 -216.3 0L0 0Z" fill="#f17c53"></path>
      <path d="M0 108.2C-12.8 102 -25.6 95.9 -37.2 89.8C-48.8 83.8 -59.2 78 -70.4 70.4C-81.5 62.8 -93.5 53.4 -99.9 41.4C-106.4 29.4 -107.3 14.7 -108.2 0L0 0Z" fill="#fbae3c"></path>
   </g>
   <g transform="translate(0, 600)">
      <path d="M0 -432.7C58.6 -419.1 117.1 -405.6 153.8 -371.4C190.6 -337.2 205.5 -282.3 248.9 -248.9C292.3 -215.5 364.3 -203.5 399.7 -165.6C435.1 -127.7 433.9 -63.8 432.7 0L0 0Z" fill="#232745"></path>
      <path d="M0 -324.5C43.9 -314.3 87.8 -304.2 115.4 -278.5C142.9 -252.9 154.1 -211.7 186.7 -186.7C219.3 -161.6 273.3 -152.6 299.8 -124.2C326.3 -95.7 325.4 -47.9 324.5 0L0 0Z" fill="#96446e"></path>
      <path d="M0 -216.3C29.3 -209.6 58.6 -202.8 76.9 -185.7C95.3 -168.6 102.7 -141.2 124.5 -124.5C146.2 -107.7 182.2 -101.7 199.9 -82.8C217.6 -63.8 216.9 -31.9 216.3 0L0 0Z" fill="#f17c53"></path>
      <path d="M0 -108.2C14.6 -104.8 29.3 -101.4 38.5 -92.8C47.6 -84.3 51.4 -70.6 62.2 -62.2C73.1 -53.9 91.1 -50.9 99.9 -41.4C108.8 -31.9 108.5 -16 108.2 0L0 0Z" fill="#fbae3c"></path>
   </g>
</svg>